<svg width="1280" height="1280" xmlns="http://www.w3.org/2000/svg" preserveAspectRatio="xMidYMid meet">
 <metadata>Created by potrace 1.15, written by Peter Selinger 2001-2017</metadata>

 <g>
  <title>background</title>
  <rect fill="none" id="canvas_background" height="402" width="582" y="-1" x="-1"/>
 </g>
 <g>
  <title>Layer 1</title>
  <g id="svg_1" fill="#000000" transform="translate(0,1280) scale(0.10000000149011612,-0.10000000149011612) ">
   <path fill="#ffffff" id="svg_2" d="m6035,12789c-1890,-112 -3621,-1041 -4757,-2554c-1087,-1447 -1509,-3313 -1153,-5090c405,-2014 1749,-3711 3615,-4565c1872,-856 4051,-757 5837,266c1606,920 2734,2485 3098,4299c303,1511 46,3094 -721,4432c-971,1696 -2665,2858 -4589,3148c-444,67 -908,89 -1330,64zm815,-1355c785,-76 1522,-319 2184,-720c129,-78 328,-213 405,-274l32,-25l-3544,-3543l-3544,-3544l-65,89c-480,657 -800,1447 -922,2278c-49,331 -65,816 -37,1110c63,670 227,1256 516,1840c494,999 1281,1786 2280,2280c648,320 1319,493 2050,529c130,6 489,-5 645,-20zm3697,-2143c438,-622 741,-1396 857,-2186c49,-331 65,-816 37,-1110c-63,-670 -227,-1256 -516,-1840c-643,-1303 -1793,-2245 -3215,-2636c-659,-181 -1365,-221 -2050,-118c-812,123 -1596,443 -2243,917l-89,65l3544,3544l3543,3544l25,-32c14,-17 62,-83 107,-148z"/>
  </g>
 </g>
</svg>